# Blender 4.0.2
# www.blender.org
mtllib arrow.mtl
o Cube
v 0.000000 -1.000000 -3.378797
v 0.000000 1.000000 -3.378797
v -2.009626 -1.000000 2.307045
v -2.009626 1.000000 2.307045
v 2.009626 -1.000000 2.307045
v 2.009626 1.000000 2.307045
v -1.004813 -1.000000 -0.535876
v -1.004813 1.000000 -0.535876
v 1.004813 1.000000 2.307045
v 1.004813 -1.000000 2.307045
v -1.004813 -1.000000 2.307045
v 1.004813 -1.000000 -0.535876
v 1.004813 1.000000 -0.535876
v -1.004813 1.000000 2.307045
v 0.000000 1.000000 0.885584
v 0.000000 -1.000000 0.885584
vn -0.9428 -0.0000 -0.3332
vn -0.0000 -0.0000 1.0000
vn 0.9428 -0.0000 -0.3332
vn -0.0000 -1.0000 -0.0000
vn -0.0000 1.0000 -0.0000
vn -0.8166 -0.0000 0.5772
vn 0.8166 -0.0000 0.5772
vt 0.375000 0.125000
vt 0.625000 0.125000
vt 0.625000 0.250000
vt 0.375000 0.250000
vt 0.375000 0.437500
vt 0.625000 0.437500
vt 0.625000 0.500000
vt 0.375000 0.500000
vt 0.375000 0.625000
vt 0.625000 0.625000
vt 0.625000 0.750000
vt 0.375000 0.750000
vt 0.218750 0.562500
vt 0.312500 0.500000
vt 0.250000 0.625000
vt 0.718750 0.562500
vt 0.812500 0.500000
vt 0.875000 0.500000
vt 0.750000 0.625000
vt 0.375000 0.000000
vt 0.625000 0.000000
vt 0.125000 0.500000
vt 0.187500 0.500000
vt 0.125000 0.625000
vt 0.687500 0.500000
vt 0.625000 0.312500
vt 0.375000 0.312500
vt 0.125000 0.750000
s 0
f 7/1/1 3/4/1 4/3/1 8/2/1
f 10/5/2 5/8/2 6/7/2 9/6/2
f 12/9/3 1/12/3 2/11/3 13/10/3
f 16/13/4 12/15/4 5/8/4 10/14/4
f 15/16/5 8/19/5 4/18/5 14/17/5
f 13/10/5 2/11/5 8/19/5 15/16/5
f 16/13/6 10/14/6 9/6/6 15/16/6
f 1/20/1 7/1/1 8/2/1 2/21/1
f 3/22/4 7/24/4 16/13/4 11/23/4
f 6/7/5 13/10/5 15/16/5 9/25/5
f 3/4/2 11/27/2 14/26/2 4/3/2
f 7/24/4 1/28/4 12/15/4 16/13/4
f 5/8/3 12/9/3 13/10/3 6/7/3
f 16/13/7 15/16/7 14/26/7 11/23/7
